<?xml version="1.0" encoding="UTF-8" standalone="no"?>
<!-- Created with Inkscape (http://www.inkscape.org/) -->

<svg
   viewBox="0 0 82.340889 86.156006"
   version="1.1"
   id="svg5"
   xml:space="preserve"
   width="82.340889"
   height="86.156006"
   xmlns="http://www.w3.org/2000/svg"
   xmlns:svg="http://www.w3.org/2000/svg"><defs
   id="defs187" />
  
<g
   id="layer2"
   transform="translate(-4.951595,-3.4683917)"><path
     style="font-variation-settings:'wght' 600;fill:#00b4d8;fill-opacity:1;stroke:none;stroke-width:0;stroke-opacity:1"
     d="m 25.626504,88.925846 c -1.592075,-0.421254 -3.402167,-1.127276 -4.022426,-1.568939 -0.620259,-0.441666 -1.299676,-0.803026 -1.509816,-0.803026 -0.535161,0 -4.742484,-4.378065 -5.664797,-5.894687 -0.419684,-0.690118 -0.763063,-1.517835 -0.763063,-1.839375 0,-0.321541 -0.158025,-0.584617 -0.351167,-0.584617 -0.193142,0 -0.445856,-0.490208 -0.561586,-1.089351 -0.11573,-0.599143 -0.399096,-1.802381 -0.629701,-2.673861 -0.230606,-0.871481 -0.423536,-2.787748 -0.428733,-4.258372 l -0.0095,-2.673862 H 10.47134 c -1.500685,0 -2.5691102,-0.531615 -4.2323302,-2.105877 L 4.951595,64.215323 v -6.994009 c 0,-6.603951 0.049708,-7.066481 0.8912872,-8.293431 0.8442977,-1.230911 2.305219,-2.015996 4.7535308,-2.554508 1.042823,-0.22937 1.089351,-0.342587 1.089351,-2.650676 0,-3.004386 0.931271,-6.726865 2.266969,-9.061534 1.170538,-2.045986 4.426142,-5.54434 5.160424,-5.545204 0.272338,-3.2e-4 0.495159,-0.159209 0.495159,-0.353085 0,-0.559181 3.539953,-2.095401 6.139978,-2.664543 1.459806,-0.31955 5.154857,-0.52564 9.577591,-0.534187 l 7.200824,-0.01392 0.271563,-2.173512 c 0.14936,-1.195433 0.201607,-3.411552 0.116106,-4.924709 C 42.776727,16.01591 42.634323,15.6028 41.671025,14.84507 39.609192,13.223232 38.809052,9.6485842 39.99466,7.3558701 c 1.244355,-2.4063168 4.726491,-4.331724 6.868467,-3.7978421 3.743113,0.9329612 5.623781,3.1847023 5.623781,6.733414 0,1.202616 -0.178258,2.186574 -0.396128,2.186574 -0.21787,0 -0.396128,0.232417 -0.396128,0.516484 0,0.284066 -0.623901,1.121193 -1.386446,1.860281 l -1.386447,1.343797 v 4.675824 4.675824 l 5.842882,0.02492 c 11.926646,0.05088 15.356758,1.02673 19.972029,5.681964 3.333018,3.361875 4.669073,6.229743 5.276729,11.326598 0.396115,3.322521 0.50366,3.509057 2.302369,3.993398 4.265165,1.148489 5.209513,3.329869 4.932196,11.393026 -0.102343,2.975652 -0.396963,5.96098 -0.654715,6.63406 -0.523542,1.367171 -2.599909,2.695459 -4.833751,3.092236 l -1.4273,0.253518 -0.233315,3.459081 c -0.250341,3.711541 -1.282408,7.541307 -2.376678,8.819321 -0.371461,0.433839 -0.675386,0.959346 -0.675386,1.1678 0,0.541146 -3.774031,4.365469 -4.308062,4.365469 -0.245009,0 -0.445469,0.178258 -0.445469,0.396128 0,0.21787 -0.267386,0.396127 -0.594192,0.396127 -0.326805,0 -0.594191,0.157604 -0.594191,0.350233 0,0.192629 -1.292366,0.850727 -2.871925,1.462443 l -2.871925,1.112212 -18.419934,0.106499 c -17.145368,0.09913 -18.620231,0.0535 -21.314617,-0.659422 z m 10.34039,-30.110681 c 4.293162,-3.258419 4.101639,-9.475226 -0.397628,-12.906927 -3.045038,-2.322532 -6.738118,-2.120415 -9.671003,0.529266 -2.129011,1.923437 -2.724798,3.207113 -2.724798,5.870833 0,2.805071 0.832422,4.592929 2.925185,6.282663 2.157159,1.741726 2.38565,1.813128 5.436537,1.698869 2.298659,-0.08609 2.839044,-0.265909 4.431707,-1.474704 z m 28.057384,1.08127 c 3.723604,-1.708911 5.389629,-5.466165 4.467722,-10.075704 -0.39389,-1.969439 -2.841285,-4.269895 -5.401085,-5.076799 -1.995719,-0.629094 -2.5014,-0.650406 -4.433785,-0.186834 -2.42093,0.580775 -4.355245,2.151175 -5.238439,4.252906 -0.620966,1.477698 -0.724066,6.682724 -0.139528,7.043988 0.21787,0.134652 0.398334,0.546252 0.401031,0.914667 0.0044,0.602244 1.39656,1.778308 3.716703,3.139802 1.05999,0.622016 5.26246,0.61439 6.627381,-0.01204 z"
     id="path2696" /></g></svg>
